<?xml version="1.0" standalone="no"?><!DOCTYPE svg PUBLIC "-//W3C//DTD SVG 1.1//EN" "http://www.w3.org/Graphics/SVG/1.1/DTD/svg11.dtd"><svg t="1500808969549" class="icon" style="" viewBox="0 0 1024 1024" version="1.1" xmlns="http://www.w3.org/2000/svg" p-id="2382" xmlns:xlink="http://www.w3.org/1999/xlink" width="32" height="32"><defs><style type="text/css"></style></defs><path d="M953.495 720.813l0.004-0.002-0.128-0.134c-0.448-0.517-428.797-442.436-428.797-442.436-13.048-13.047-27.631 0-27.631 0l-428.667 442.212c-2.943 3.302-4.733 7.653-4.733 12.428 0 10.312 8.362 18.676 18.676 18.676 4.657 0 8.904-1.715 12.175-4.533l0.006 0.005 0.105-0.106c0.798-0.698 416.418-428.766 416.418-428.766s415.239 428.066 416.039 428.766l0.104 0.105 0.008-0.008c3.268 2.82 7.518 4.533 12.173 4.533 10.315 0 18.677-8.36 18.678-18.676-0.001-4.603-1.673-8.809-4.433-12.065v0z" p-id="2383" fill="#8a8a8a"></path></svg>