<?xml version="1.0" standalone="no"?><!DOCTYPE svg PUBLIC "-//W3C//DTD SVG 1.1//EN" "http://www.w3.org/Graphics/SVG/1.1/DTD/svg11.dtd"><svg t="1500005490425" class="icon" style="" viewBox="0 0 1024 1024" version="1.1" xmlns="http://www.w3.org/2000/svg" p-id="5847" xmlns:xlink="http://www.w3.org/1999/xlink" width="48" height="48"><defs><style type="text/css"></style></defs><path d="M738.2 523.6c-35.3-6.8-18.2-25.8-18.2-25.8s34.6-57-6.8-98.4c-51.3-51.3-176.1 6.5-176.1 6.5-47.6 14.8-35-6.7-28.3-43.4 0-43.2-14.8-116.2-141.7-73.1-126.8 43.4-235.6 195.4-235.6 195.4-75.7 101-65.7 179.1-65.7 179.1 18.9 172.3 202 219.7 344.5 230.9 149.9 11.7 352.1-51.7 413.4-181.9 61.4-130.6-50.1-182.3-85.5-189.3zM421.4 846.1c-148.7 7-269-67.6-269-166.9 0-99.4 120.3-179.1 269-186 148.9-6.9 269.4 54.5 269.4 153.6 0 99.3-120.5 192.5-269.4 199.3z" p-id="5848" fill="#8a8a8a"></path><path d="M391.7 558.7c-149.6 17.5-132.3 157.7-132.3 157.7s-1.5 44.4 40.1 67c87.5 47.4 177.7 18.7 223.2-40.1 45.6-58.9 18.9-202-131-184.6zM354 755.4c-27.9 3.3-50.4-12.8-50.4-36.2 0-23.3 20-47.6 47.9-50.5 32.1-3.1 53 15.4 53 38.8 0 23.2-22.7 44.7-50.5 47.9z m88.2-75.1c-9.5 7.1-21.1 6-26.1-2.4-5.2-8.3-3.3-21.5 6.3-28.5 11.1-8.2 22.6-5.9 27.6 2.4 5 8.4 1.4 21.2-7.8 28.5zM954.7 445c0.7-2.8 1.2-5.6 1.2-8.6 2-13.2 3.3-26.7 3.3-40.1 0-147.7-120.1-267.8-267.8-267.8-20.5 0-37 16.6-37 37s16.6 37 37 37c106.8 0 193.7 86.9 193.7 193.7 0 11.9-1.1 23.8-3.2 35.4l0.4 0.1c-0.1 1.4-0.4 2.8-0.4 4.2 0 20.4 16.6 37 37 37 17.3 0 31.6-11.9 35.7-27.8 0.1 0.1 0.1 0 0.1-0.1z" p-id="5849" fill="#8a8a8a"></path><path d="M838.8 410.3c0.4-4.6 0.9-9.2 0.9-13.9 0-81.8-66.5-148.3-148.3-148.3-17 0-30.9 13.8-30.9 30.9 0 17 13.8 30.9 30.9 30.9 47.7 0 86.6 38.9 86.6 86.6 0 3.8-0.2 7.5-0.7 11.1l0.7 0.1c-0.1 1.2-0.7 2.3-0.7 3.6 0 17 13.8 30.9 30.9 30.9 15.6 0 27.9-11.8 30-26.8h0.3c0.1-0.8 0-1.6 0.1-2.4 0-0.6 0.4-1.1 0.4-1.8 0-0.4-0.2-0.6-0.2-0.9z" p-id="5850" fill="#8a8a8a"></path></svg>