<?xml version="1.0" standalone="no"?><!DOCTYPE svg PUBLIC "-//W3C//DTD SVG 1.1//EN" "http://www.w3.org/Graphics/SVG/1.1/DTD/svg11.dtd"><svg t="1500104120854" class="icon" style="" viewBox="0 0 1024 1024" version="1.1" xmlns="http://www.w3.org/2000/svg" p-id="2394" xmlns:xlink="http://www.w3.org/1999/xlink" width="32" height="32"><defs><style type="text/css"></style></defs><path d="M714.773333 206.17697c13.186586 0 23.894626-8.199758 23.894627-18.22901V73.82497c0-10.117172-10.713212-18.22901-23.894627-18.22901-13.184 0-23.802828 8.203636-23.802828 18.22901v114.12299c0 10.117172 10.618828 18.22901 23.802828 18.22901zM309.22796 206.17697c13.184 0 23.801535-8.199758 23.801535-18.22901V73.82497c0-10.117172-10.617535-18.22901-23.801535-18.22901-13.185293 0-23.890747 8.203636-23.890748 18.22901v114.12299c-0.005172 10.117172 10.705455 18.22901 23.890748 18.22901zM452.405657 778.785616c12.449616 14.312727 32.680081 14.312727 45.129697 0l234.17406-268.709495c12.448323-14.308848 12.448323-37.555717-0.093091-51.87103-12.450909-14.308848-32.681374-14.308848-45.129697 0l-211.468929 242.82505-108.849131-124.962909c-12.542707-14.312727-32.769293-14.312727-45.217617 0-12.449616 14.311434-12.449616 37.551838 0 51.863273L452.405657 778.785616z" p-id="2395" fill="#707070"></path><path d="M844.584727 116.120566h-79.18804v63.163474c0 24.067879-22.335354 43.576889-49.88897 43.576889-27.461818 0-49.801051-19.507717-49.80105-43.576889V116.120566H358.205414v63.163474c0 24.067879-22.335354 43.576889-49.797172 43.576889-27.469576 0-49.803636-19.507717-49.803636-43.576889V116.120566H179.417859C126.052202 116.120566 82.563232 154.034424 82.563232 200.706586v682.444283c0 46.670869 43.395879 84.587313 96.854627 84.587313h665.170747c53.368242 0 96.848162-38.009535 96.848162-84.587313V200.706586c0-46.672162-43.479919-84.58602-96.852041-84.58602z m33.780364 754.08808c0 15.038061-15.106586 27.345455-33.776485 27.345455H179.419152c-18.675071 0-33.781657-12.214303-33.781657-27.345455v-514.637575h732.82198l-0.094384 514.637575z" p-id="2396" fill="#707070"></path></svg>