<?xml version="1.0" standalone="no"?><!DOCTYPE svg PUBLIC "-//W3C//DTD SVG 1.1//EN" "http://www.w3.org/Graphics/SVG/1.1/DTD/svg11.dtd"><svg t="1500104228434" class="icon" style="" viewBox="0 0 1024 1024" version="1.1" xmlns="http://www.w3.org/2000/svg" p-id="2391" xmlns:xlink="http://www.w3.org/1999/xlink" width="32" height="32"><defs><style type="text/css"></style></defs><path d="M512.186242 0.841158C229.79057 0.841158 0.86367 229.769081 0.86367 512.164752s228.927923 511.322571 511.322571 511.322571 511.322571-228.927923 511.322571-511.322571S794.581913 0.841158 512.186242 0.841158zM512.186242 988.625328c-263.142166 0-476.460576-213.31841-476.460576-476.460576S249.044076 35.704177 512.186242 35.704177 988.646817 249.022587 988.646817 512.164752 775.328407 988.625328 512.186242 988.625328z" p-id="2392" fill="#707070"></path><path d="M429.04466 338.644767c0 38.889729-31.508621 70.39528-70.397327 70.39528-38.870286 0-70.378907-31.508621-70.378907-70.39528 0-38.868239 31.508621-70.375837 70.378907-70.375837C397.536039 268.26893 429.04466 299.776528 429.04466 338.644767M543.374568 301.577546c0 20.243043-16.400528 36.645618-36.645618 36.645618-20.246113 0-36.646642-16.402575-36.646642-36.645618s16.400528-36.645618 36.646642-36.645618C526.97404 264.931928 543.374568 281.334503 543.374568 301.577546M649.622404 310.722834c0 20.243043-16.402575 36.644595-36.646642 36.644595s-36.646642-16.400528-36.646642-36.644595c0-20.24509 16.402575-36.645618 36.646642-36.645618C633.220852 274.076192 649.622404 290.478767 649.622404 310.722834M735.732597 358.359784c0 20.243043-16.400528 36.643572-36.645618 36.643572s-36.647665-16.399505-36.647665-36.643572c0-20.246113 16.403598-36.645618 36.647665-36.645618C719.330022 321.714166 735.732597 338.116741 735.732597 358.359784M401.585261 459.337593c0 0 24.619724-68.063165 118.752638-79.646991 0 0 145.317667-10.136871 170.34569 133.13623 12.217253 70.009494 7.128351 221.656309-105.176434 244.73698-27.109428 5.566786-105.71981-1.356904-95.580892-72.317049 3.574409-25.093515 27.108405-65.935712 0-101.368712C471.099475 559.25935 376.965537 552.019459 401.585261 459.337593L401.585261 459.337593z" p-id="2393" fill="#707070"></path></svg>